# xmcd CD database file
#
# Track frame offsets:
#	150
#	14488
#	34609
#	60305
#	79500
#	87067
#	102304
#
# Disc length: 1741 seconds
#
# Revision: 1
# Processed by: cddbd v1.5.2PL0 Copyright (c) Steve Scherf et al.
# Submitted via: CDex 1.70beta3
#
DISCID=4306cb07
DTITLE=CP Unti - Before the Heat Death
DYEAR=2017
DGENRE=Jazz
TTITLE0=Fried
TTITLE1=Quantized
TTITLE2=Death in the Afternoon
TTITLE3=Ballad
TTITLE4=Guillotine
TTITLE5=Supersax
TTITLE6=Wet Brain
EXTD=YEAR: 2017
EXTT0=
EXTT1=
EXTT2=
EXTT3=
EXTT4=
EXTT5=
EXTT6=
PLAYORDER=
